/* XPM */
static char *wall_east_xpm[] = {
"8 8 3 1",
" 	c #3E4B34",
".	c #6B8B5B",
"#	c #A2C48E",
"##......",
"#..##...",
".##..#..",
"..##..#.",
"..#..##.",
".#..##..",
"...##..#",
"......##"
};
